<?xml version="1.0" encoding="UTF-8"?>
<svg id="Layer_1" data-name="Layer 1" xmlns="http://www.w3.org/2000/svg" xmlns:xlink="http://www.w3.org/1999/xlink" viewBox="0 0 1368.3 253.2">
  <defs>
    <style>
      .cls-1 {
        fill: none;
      }

      .cls-2 {
        fill: url(#linear-gradient);
      }

      .cls-3 {
        isolation: isolate;
      }

      .cls-4 {
        fill: #fff;
      }
    </style>
    <linearGradient id="linear-gradient" x1="0" y1="2804.4" x2="309.7" y2="2804.4" gradientTransform="translate(0 -2675.9)" gradientUnits="userSpaceOnUse">
      <stop offset="0" stop-color="#f0575f"/>
      <stop offset="1" stop-color="#fbaf3b"/>
      <stop offset="1" stop-color="#fbb03a"/>
    </linearGradient>
  </defs>
  <g id="Layer_11" data-name="Layer 11">
    <rect class="cls-1" y="3.5" width="309.6" height="249.7"/>
    <path class="cls-2" d="M63.3,149.3c-3.1,1.9-5.3,5-5.6,8.7v4c0,6.2,6.2,11.2,14.3,11.2h19.9c7.8,0,14.3-5,14.3-11.2-.6-5.6-5-9.9-10.5-10.5l-19.9-4c-1.2,0-2.5-.3-3.7-.3-3.1,0-5.9.6-8.7,2.2M219.3,100.3v99c0,18-9,27-26.7,27-7.1.3-14.3-2.2-19.5-6.8-4.7-4.3-7.1-11.5-7.1-21.1v-97.7h-31v98.6c0,16.1,5.6,28.5,15.8,37.8s24.2,13.6,41.9,13.6,32-4.7,42.2-14.3c10.2-9.3,15.5-22.3,15.5-38.5v-97.7h-31.1v.1ZM277.7,245.8h32V100.3h-32v145.5h0ZM116.7,5.1c-19.2,2.2-36.9,5.3-48.4,19.2-4.7,6.8-8.1,10.9-12.1,17.7-1.6,2.8-3.1,5.6-4.7,8.7s-3.4,7.4-4.7,10.2c-2.2-2.5-5.6-3.7-8.7-3.1-11.2.3-28.5,8.1-34.1,14.9-2.2,2.5-3.4,5.6-4,8.7v3.1c0,9.3,6.8,17.1,16.1,18.6l11.2,1.6-2.5,3.4-6.5,8.1c-.3.6-.6.9-.9,1.6-2.5,3.7-4.3,7.4-5.9,11.5-1.6,4.3-2.8,8.7-3.4,13-.3,5.9-.6,10.2-.6,12.4,0,4,0,7.8.6,11.8,1.2,9,1.6,30.1,1.2,63,0,5,2.2,9.6,5.6,13,8.7,8.7,13,10.5,21.1,10.5h23.6c15.2,0,27.6-10.9,27.6-24.2v-5.6c0-.9.3-1.6,1.2-2.2,3.7-2.5,15.2-7.8,19.9-10.5,1.2-.9,2.2-.6,1.9-1.9-.3-1.2-1.6-1.2-4-1.2-8.7,0-25.7.6-28.2.6-5,0-9.3,3.4-9.6,8.4v12.1c0,4.7-4.3,8.1-8.7,7.8h-23.6c-4.7,0-8.4-3.1-8.7-7.8-.3-25.7-.6-42.8-.9-50.9-.3-8.4-1.6-14.6-1.9-18.3,0-6.2,0-12.7.9-18.9.6-3.7,1.6-7.1,3.1-10.5.9-2.5,2.5-4.7,4-6.8,6.2-7.8,10.5-13,12.4-15.5l2.5-3.4c.6-.9.9-2.2.9-3.1.6-4.3-2.5-8.4-6.5-9l-23.3-4.7c-.9,0-1.9-.9-2.2-1.9v-1.9l.6-1.2c5.6-5.6,12.7-9.9,20.2-12.1.9,0,1.6,0,2.5.6,2.2,1.6,3.7,3.7,4.3,6.2.3,1.9,1.2,2.5,3.4,4,1.2.6,2.5.9,3.7,1.2,3.4.3,6.5-1.2,8.4-4,6.8-15.5,15.2-30.4,24.8-44.7,8.7-10.2,21.7-10.9,36-12.1,11.2-1.6,62.4-1.6,92.4-.9,10.2,0,17.7.6,21.1.9,14.3.9,21.4,2.8,35.4,18,5,5.3,9.6,10.9,14,16.8,2.8,3.7,5.9,5.9,8.7,5,5-1.9.9-8.7,0-10.2-6.2-10.5-13-20.8-21.1-30.1-3.4-4.3-7.8-7.8-13-10.2-6.5-3.1-13.6-5-21.1-5.6-4-.3-13.3-.6-24.8-.9-10.5-.3-23-.3-35.1-.3h-1.9c-25.1,0-49.9.3-57.4,1.6l-.9-.3v-.2h.1Z"/>
    <path class="cls-1" d="M63.3,149.3c-3.1,1.9-5.3,5-5.6,8.7v4c0,6.2,6.2,11.2,14.3,11.2h19.9c7.8,0,14.3-5,14.3-11.2-.6-5.6-5-9.9-10.5-10.5l-19.9-4c-1.2,0-2.5-.3-3.7-.3-3.1,0-5.9.6-8.7,2.2M219.3,100.3v99c0,18-9,27-26.7,27-7.1.3-14.3-2.2-19.5-6.8-4.7-4.3-7.1-11.5-7.1-21.1v-97.7h-31v98.6c0,16.1,5.6,28.5,15.8,37.8s24.2,13.6,41.9,13.6,32-4.7,42.2-14.3c10.2-9.3,15.5-22.3,15.5-38.5v-97.7h-31.1v.1ZM277.7,245.8h32V100.3h-32v145.5ZM116.7,5.1c-19.2,2.2-36.9,5.3-48.4,19.2-4.7,6.8-8.1,10.9-12.1,17.7-1.6,2.8-3.1,5.6-4.7,8.7-1.6,3.1-3.4,7.4-4.7,10.2-2.2-2.5-5.6-3.7-8.7-3.1-11.2.3-28.5,8.1-34.1,14.9-2.2,2.5-3.4,5.6-4,8.7v3.1c0,9.3,6.8,17.1,16.1,18.6l11.2,1.6-2.5,3.4-6.5,8.1c-.3.6-.6.9-.9,1.6-2.5,3.7-4.3,7.4-5.9,11.5-1.6,4.3-2.8,8.7-3.4,13-.3,5.9-.6,10.2-.6,12.4,0,4,0,7.8.6,11.8,1.2,9,1.6,30.1,1.2,63,0,5,2.2,9.6,5.6,13,8.7,8.7,13,10.5,21.1,10.5h23.6c15.2,0,27.6-10.9,27.6-24.2v-5.6c0-.9.3-1.6,1.2-2.2,3.7-2.5,15.2-7.8,19.9-10.5,1.2-.9,2.2-.6,1.9-1.9-.3-1.2-1.6-1.2-4-1.2-8.7,0-25.7.6-28.2.6-5,0-9.3,3.4-9.6,8.4v12.1c0,4.7-4.3,8.1-8.7,7.8h-23.6c-4.7,0-8.4-3.1-8.7-7.8-.3-25.7-.6-42.8-.9-50.9-.3-8.4-1.6-14.6-1.9-18.3,0-6.2,0-12.7.9-18.9.6-3.7,1.6-7.1,3.1-10.5.9-2.5,2.5-4.7,4-6.8,6.2-7.8,10.5-13,12.4-15.5l2.5-3.4c.6-.9.9-2.2.9-3.1.6-4.3-2.5-8.4-6.5-9l-23.3-4.7c-.9,0-1.9-.9-2.2-1.9v-1.9l.6-1.2c5.6-5.6,12.7-9.9,20.2-12.1.9,0,1.6,0,2.5.6,2.2,1.6,3.7,3.7,4.3,6.2.3,1.9,1.2,2.5,3.4,4,1.2.6,2.5.9,3.7,1.2,3.4.3,6.5-1.2,8.4-4,6.8-15.5,15.2-30.4,24.8-44.7,8.7-10.2,21.7-10.9,36-12.1,11.2-1.6,62.4-1.6,92.4-.9,10.2,0,17.7.6,21.1.9,14.3.9,21.4,2.8,35.4,18,5,5.3,9.6,10.9,14,16.8,2.8,3.7,5.9,5.9,8.7,5,5-1.9.9-8.7,0-10.2-6.2-10.5-13-20.8-21.1-30.1-3.4-4.3-7.8-7.8-13-10.2-6.5-3.1-13.6-5-21.1-5.6-4-.3-13.3-.6-24.8-.9-10.5-.3-23-.3-35.1-.3h-1.9c-25.1,0-49.9.3-57.4,1.6l-.9-.3v-.2h.1Z"/>
    <g class="cls-3">
      <g class="cls-3">
        <g class="cls-3">
          <g class="cls-3">
            <g class="cls-3">
              <g class="cls-3">
                <path class="cls-4" d="M370.83,74h-3.52v-38.44l-11.6,4.31v-3.28l14.53-5.39h.59v42.8Z"/>
                <path class="cls-4" d="M414.04,33.37l-18.22,40.63h-3.66l18.11-39.67h-24.26v-2.99h28.04v2.02Z"/>
                <path class="cls-4" d="M427.02,34.19v8.12h6.56v2.87h-6.56v21.15c0,1.76.32,3.07.95,3.93.63.86,1.69,1.29,3.18,1.29.59,0,1.53-.1,2.84-.29l.15,2.85c-.92.33-2.17.49-3.75.49-2.4,0-4.15-.7-5.24-2.09-1.09-1.4-1.64-3.45-1.64-6.17v-21.15h-5.83v-2.87h5.83v-8.12h3.52Z"/>
                <path class="cls-4" d="M444.34,47.66c1.15-1.89,2.63-3.36,4.42-4.39,1.8-1.04,3.76-1.55,5.89-1.55,3.4,0,5.93.96,7.59,2.87,1.66,1.91,2.5,4.79,2.52,8.61v20.8h-3.49v-20.83c-.02-2.83-.62-4.94-1.8-6.33-1.18-1.39-3.07-2.08-5.67-2.08-2.17,0-4.09.68-5.76,2.04s-2.91,3.19-3.71,5.49v21.71h-3.49V29h3.49v18.66Z"/>
                <path class="cls-4" d="M493.59,74h-3.6V31.34h3.6v42.66Z"/>
                <path class="cls-4" d="M507.68,42.3l.12,5.42c1.19-1.95,2.68-3.44,4.45-4.47,1.78-1.03,3.74-1.54,5.89-1.54,3.4,0,5.93.96,7.59,2.87,1.66,1.91,2.5,4.79,2.52,8.61v20.8h-3.49v-20.83c-.02-2.83-.62-4.94-1.8-6.33-1.18-1.39-3.07-2.08-5.67-2.08-2.17,0-4.09.68-5.76,2.04s-2.91,3.19-3.71,5.49v21.71h-3.49v-31.7h3.34Z"/>
                <path class="cls-4" d="M542.75,34.19v8.12h6.56v2.87h-6.56v21.15c0,1.76.32,3.07.95,3.93.63.86,1.69,1.29,3.18,1.29.59,0,1.53-.1,2.84-.29l.15,2.85c-.92.33-2.17.49-3.75.49-2.4,0-4.15-.7-5.24-2.09-1.09-1.4-1.64-3.45-1.64-6.17v-21.15h-5.83v-2.87h5.83v-8.12h3.52Z"/>
                <path class="cls-4" d="M568.85,74.59c-2.7,0-5.13-.66-7.31-1.99-2.18-1.33-3.87-3.18-5.08-5.55-1.21-2.37-1.82-5.03-1.82-7.98v-1.26c0-3.05.59-5.79,1.77-8.23,1.18-2.44,2.83-4.36,4.94-5.76s4.39-2.09,6.86-2.09c3.85,0,6.9,1.31,9.16,3.94s3.38,6.22,3.38,10.77v1.96h-22.62v.67c0,3.59,1.03,6.59,3.09,8.98,2.06,2.39,4.65,3.59,7.78,3.59,1.88,0,3.53-.34,4.97-1.03s2.74-1.78,3.91-3.28l2.2,1.67c-2.58,3.73-6.32,5.6-11.22,5.6ZM568.2,44.7c-2.64,0-4.86.97-6.67,2.9-1.81,1.93-2.91,4.53-3.3,7.79h19.01v-.38c-.1-3.05-.97-5.53-2.61-7.44s-3.79-2.87-6.45-2.87Z"/>
                <path class="cls-4" d="M602.22,45.29c-.74-.14-1.53-.21-2.37-.21-2.19,0-4.04.61-5.55,1.83-1.51,1.22-2.59,2.99-3.24,5.32v21.77h-3.49v-31.7h3.43l.06,5.04c1.86-3.75,4.83-5.62,8.94-5.62.98,0,1.75.13,2.31.38l-.09,3.19Z"/>
                <path class="cls-4" d="M611.1,42.3l.12,5.42c1.19-1.95,2.68-3.44,4.45-4.47,1.78-1.03,3.74-1.54,5.89-1.54,3.4,0,5.93.96,7.59,2.87,1.66,1.91,2.5,4.79,2.52,8.61v20.8h-3.49v-20.83c-.02-2.83-.62-4.94-1.8-6.33-1.18-1.39-3.07-2.08-5.67-2.08-2.17,0-4.09.68-5.76,2.04s-2.91,3.19-3.71,5.49v21.71h-3.49v-31.7h3.34Z"/>
                <path class="cls-4" d="M660.72,74c-.35-1-.58-2.47-.67-4.42-1.23,1.6-2.8,2.84-4.7,3.71s-3.92,1.3-6.05,1.3c-3.05,0-5.51-.85-7.4-2.55-1.89-1.7-2.83-3.85-2.83-6.45,0-3.09,1.28-5.53,3.85-7.32,2.57-1.8,6.15-2.7,10.74-2.7h6.36v-3.6c0-2.27-.7-4.05-2.09-5.35-1.4-1.3-3.43-1.95-6.11-1.95-2.44,0-4.46.62-6.06,1.88-1.6,1.25-2.4,2.75-2.4,4.51l-3.52-.03c0-2.52,1.17-4.7,3.52-6.55s5.22-2.77,8.64-2.77,6.32.88,8.36,2.65c2.04,1.77,3.09,4.23,3.15,7.4v15c0,3.07.32,5.36.97,6.88v.35h-3.75ZM649.71,71.48c2.34,0,4.44-.57,6.28-1.7s3.19-2.65,4.03-4.54v-6.97h-6.27c-3.5.04-6.23.68-8.2,1.92-1.97,1.24-2.96,2.94-2.96,5.11,0,1.78.66,3.25,1.98,4.42s3.03,1.76,5.14,1.76Z"/>
                <path class="cls-4" d="M678.3,34.19v8.12h6.56v2.87h-6.56v21.15c0,1.76.32,3.07.95,3.93.63.86,1.69,1.29,3.18,1.29.59,0,1.53-.1,2.84-.29l.15,2.85c-.92.33-2.17.49-3.75.49-2.4,0-4.15-.7-5.24-2.09-1.09-1.4-1.64-3.45-1.64-6.17v-21.15h-5.83v-2.87h5.83v-8.12h3.52Z"/>
                <path class="cls-4" d="M691.93,33.15c0-.66.21-1.22.64-1.67.43-.46,1.02-.68,1.76-.68s1.33.23,1.77.68.66,1.01.66,1.67-.22,1.21-.66,1.66c-.44.45-1.03.67-1.77.67s-1.33-.22-1.76-.67c-.43-.45-.64-1-.64-1.66ZM696.06,74h-3.52v-31.7h3.52v31.7Z"/>
                <path class="cls-4" d="M703.64,57.68c0-3.05.59-5.79,1.77-8.23,1.18-2.44,2.85-4.34,5.01-5.7,2.16-1.36,4.6-2.04,7.34-2.04,4.22,0,7.64,1.48,10.25,4.44,2.62,2.96,3.93,6.88,3.93,11.76v.73c0,3.07-.59,5.83-1.77,8.28-1.18,2.45-2.85,4.34-5,5.67-2.15,1.33-4.6,1.99-7.35,1.99-4.2,0-7.61-1.48-10.24-4.44-2.63-2.96-3.94-6.88-3.94-11.76v-.7ZM707.16,58.65c0,3.79.98,6.9,2.94,9.33s4.54,3.65,7.72,3.65,5.73-1.22,7.69-3.65,2.94-5.64,2.94-9.62v-.67c0-2.42-.45-4.64-1.35-6.65-.9-2.01-2.16-3.57-3.78-4.67-1.62-1.1-3.48-1.66-5.57-1.66-3.12,0-5.67,1.23-7.65,3.68-1.97,2.45-2.96,5.66-2.96,9.62v.64Z"/>
                <path class="cls-4" d="M742.52,42.3l.12,5.42c1.19-1.95,2.68-3.44,4.45-4.47,1.78-1.03,3.74-1.54,5.89-1.54,3.4,0,5.93.96,7.59,2.87,1.66,1.91,2.5,4.79,2.52,8.61v20.8h-3.49v-20.83c-.02-2.83-.62-4.94-1.8-6.33-1.18-1.39-3.07-2.08-5.67-2.08-2.17,0-4.09.68-5.76,2.04s-2.91,3.19-3.71,5.49v21.71h-3.49v-31.7h3.34Z"/>
                <path class="cls-4" d="M792.15,74c-.35-1-.58-2.47-.67-4.42-1.23,1.6-2.8,2.84-4.7,3.71s-3.92,1.3-6.05,1.3c-3.05,0-5.51-.85-7.4-2.55-1.89-1.7-2.83-3.85-2.83-6.45,0-3.09,1.28-5.53,3.85-7.32,2.57-1.8,6.15-2.7,10.74-2.7h6.36v-3.6c0-2.27-.7-4.05-2.09-5.35-1.4-1.3-3.43-1.95-6.11-1.95-2.44,0-4.46.62-6.06,1.88-1.6,1.25-2.4,2.75-2.4,4.51l-3.52-.03c0-2.52,1.17-4.7,3.52-6.55s5.22-2.77,8.64-2.77,6.32.88,8.36,2.65c2.04,1.77,3.09,4.23,3.15,7.4v15c0,3.07.32,5.36.97,6.88v.35h-3.75ZM781.13,71.48c2.34,0,4.44-.57,6.28-1.7s3.19-2.65,4.03-4.54v-6.97h-6.27c-3.5.04-6.23.68-8.2,1.92-1.97,1.24-2.96,2.94-2.96,5.11,0,1.78.66,3.25,1.98,4.42s3.03,1.76,5.14,1.76Z"/>
                <path class="cls-4" d="M808.2,74h-3.52V29h3.52v45Z"/>
                <path class="cls-4" d="M856.16,62.02h-19.37l-4.39,11.98h-3.78l16.14-42.66h3.43l16.14,42.66h-3.75l-4.42-11.98ZM837.91,58.97h17.11l-8.55-23.23-8.55,23.23Z"/>
                <path class="cls-4" d="M900.49,60.7c-.49,4.49-2.09,7.93-4.82,10.31s-6.35,3.57-10.88,3.57c-3.16,0-5.96-.79-8.39-2.37s-4.31-3.82-5.64-6.72c-1.33-2.9-2-6.22-2.02-9.95v-5.54c0-3.79.66-7.15,1.99-10.08,1.33-2.93,3.24-5.19,5.73-6.78s5.36-2.39,8.6-2.39c4.57,0,8.18,1.23,10.83,3.69,2.65,2.46,4.18,5.87,4.61,10.22h-3.63c-.9-7.25-4.83-10.87-11.81-10.87-3.87,0-6.95,1.45-9.24,4.34-2.3,2.89-3.44,6.89-3.44,11.99v5.22c0,4.93,1.12,8.85,3.35,11.79,2.24,2.93,5.26,4.4,9.07,4.4s6.61-.9,8.53-2.71c1.91-1.81,3.1-4.52,3.54-8.13h3.63Z"/>
                <path class="cls-4" d="M914.03,31.34l15.73,37.65,15.79-37.65h4.8v42.66h-3.6v-18.57l.29-19.04-15.88,37.62h-2.78l-15.82-37.47.29,18.78v18.69h-3.6V31.34h4.78Z"/>
                <path class="cls-4" d="M1005.96,60.7c-.49,4.49-2.09,7.93-4.82,10.31s-6.35,3.57-10.88,3.57c-3.16,0-5.96-.79-8.39-2.37s-4.31-3.82-5.64-6.72c-1.33-2.9-2-6.22-2.02-9.95v-5.54c0-3.79.66-7.15,1.99-10.08,1.33-2.93,3.24-5.19,5.73-6.78s5.36-2.39,8.6-2.39c4.57,0,8.18,1.23,10.83,3.69,2.65,2.46,4.18,5.87,4.61,10.22h-3.63c-.9-7.25-4.83-10.87-11.81-10.87-3.87,0-6.95,1.45-9.24,4.34-2.3,2.89-3.44,6.89-3.44,11.99v5.22c0,4.93,1.12,8.85,3.35,11.79,2.24,2.93,5.26,4.4,9.07,4.4s6.61-.9,8.53-2.71c1.91-1.81,3.1-4.52,3.54-8.13h3.63Z"/>
                <path class="cls-4" d="M1011.96,57.68c0-3.05.59-5.79,1.77-8.23,1.18-2.44,2.85-4.34,5.01-5.7,2.16-1.36,4.6-2.04,7.34-2.04,4.22,0,7.64,1.48,10.25,4.44,2.62,2.96,3.93,6.88,3.93,11.76v.73c0,3.07-.59,5.83-1.77,8.28-1.18,2.45-2.85,4.34-5,5.67-2.15,1.33-4.6,1.99-7.35,1.99-4.2,0-7.61-1.48-10.24-4.44-2.63-2.96-3.94-6.88-3.94-11.76v-.7ZM1015.48,58.65c0,3.79.98,6.9,2.94,9.33s4.54,3.65,7.72,3.65,5.73-1.22,7.69-3.65,2.94-5.64,2.94-9.62v-.67c0-2.42-.45-4.64-1.35-6.65-.9-2.01-2.16-3.57-3.78-4.67-1.62-1.1-3.48-1.66-5.57-1.66-3.12,0-5.67,1.23-7.65,3.68-1.97,2.45-2.96,5.66-2.96,9.62v.64Z"/>
                <path class="cls-4" d="M1050.84,42.3l.12,5.42c1.19-1.95,2.68-3.44,4.45-4.47,1.78-1.03,3.74-1.54,5.89-1.54,3.4,0,5.93.96,7.59,2.87,1.66,1.91,2.5,4.79,2.52,8.61v20.8h-3.49v-20.83c-.02-2.83-.62-4.94-1.8-6.33-1.18-1.39-3.07-2.08-5.67-2.08-2.17,0-4.09.68-5.76,2.04s-2.91,3.19-3.71,5.49v21.71h-3.49v-31.7h3.34Z"/>
                <path class="cls-4" d="M1082.98,74v-28.83h-5.24v-2.87h5.24v-3.84c0-3.24.82-5.73,2.48-7.47,1.65-1.74,3.95-2.61,6.9-2.61,1.33,0,2.57.17,3.72.49l-.26,2.91c-.98-.23-2.04-.35-3.19-.35-1.93,0-3.44.6-4.51,1.81-1.07,1.2-1.61,2.91-1.61,5.13v3.94h7.56v2.87h-7.56v28.83h-3.52Z"/>
                <path class="cls-4" d="M1111.9,74.59c-2.7,0-5.13-.66-7.31-1.99-2.18-1.33-3.87-3.18-5.08-5.55-1.21-2.37-1.82-5.03-1.82-7.98v-1.26c0-3.05.59-5.79,1.77-8.23,1.18-2.44,2.83-4.36,4.94-5.76s4.39-2.09,6.86-2.09c3.85,0,6.9,1.31,9.16,3.94s3.38,6.22,3.38,10.77v1.96h-22.62v.67c0,3.59,1.03,6.59,3.09,8.98,2.06,2.39,4.65,3.59,7.78,3.59,1.88,0,3.53-.34,4.97-1.03s2.74-1.78,3.91-3.28l2.2,1.67c-2.58,3.73-6.32,5.6-11.22,5.6ZM1111.25,44.7c-2.64,0-4.86.97-6.67,2.9-1.81,1.93-2.91,4.53-3.3,7.79h19.01v-.38c-.1-3.05-.97-5.53-2.61-7.44s-3.79-2.87-6.45-2.87Z"/>
                <path class="cls-4" d="M1145.27,45.29c-.74-.14-1.53-.21-2.37-.21-2.19,0-4.04.61-5.55,1.83-1.51,1.22-2.59,2.99-3.24,5.32v21.77h-3.49v-31.7h3.43l.06,5.04c1.86-3.75,4.83-5.62,8.94-5.62.98,0,1.75.13,2.31.38l-.09,3.19Z"/>
                <path class="cls-4" d="M1162.52,74.59c-2.7,0-5.13-.66-7.31-1.99-2.18-1.33-3.87-3.18-5.08-5.55-1.21-2.37-1.82-5.03-1.82-7.98v-1.26c0-3.05.59-5.79,1.77-8.23,1.18-2.44,2.83-4.36,4.94-5.76s4.39-2.09,6.86-2.09c3.85,0,6.9,1.31,9.16,3.94s3.38,6.22,3.38,10.77v1.96h-22.62v.67c0,3.59,1.03,6.59,3.09,8.98,2.06,2.39,4.65,3.59,7.78,3.59,1.88,0,3.53-.34,4.97-1.03s2.74-1.78,3.91-3.28l2.2,1.67c-2.58,3.73-6.32,5.6-11.22,5.6ZM1161.88,44.7c-2.64,0-4.86.97-6.67,2.9-1.81,1.93-2.91,4.53-3.3,7.79h19.01v-.38c-.1-3.05-.97-5.53-2.61-7.44s-3.79-2.87-6.45-2.87Z"/>
                <path class="cls-4" d="M1184.58,42.3l.12,5.42c1.19-1.95,2.68-3.44,4.45-4.47,1.78-1.03,3.74-1.54,5.89-1.54,3.4,0,5.93.96,7.59,2.87,1.66,1.91,2.5,4.79,2.52,8.61v20.8h-3.49v-20.83c-.02-2.83-.62-4.94-1.8-6.33-1.18-1.39-3.07-2.08-5.67-2.08-2.17,0-4.09.68-5.76,2.04s-2.91,3.19-3.71,5.49v21.71h-3.49v-31.7h3.34Z"/>
                <path class="cls-4" d="M1225.92,71.63c2.44,0,4.49-.69,6.14-2.07,1.65-1.38,2.54-3.16,2.68-5.35h3.37c-.1,1.93-.7,3.7-1.82,5.29s-2.59,2.84-4.44,3.74-3.82,1.35-5.93,1.35c-4.16,0-7.46-1.45-9.89-4.34s-3.65-6.78-3.65-11.66v-1.05c0-3.12.55-5.89,1.64-8.29,1.09-2.4,2.66-4.26,4.7-5.57,2.04-1.31,4.43-1.96,7.16-1.96,3.48,0,6.34,1.04,8.6,3.11s3.46,4.79,3.62,8.17h-3.37c-.16-2.48-1.05-4.48-2.68-6.01-1.63-1.52-3.69-2.29-6.17-2.29-3.16,0-5.62,1.14-7.37,3.43-1.75,2.29-2.62,5.49-2.62,9.61v1.03c0,4.04.87,7.2,2.62,9.46,1.75,2.27,4.21,3.4,7.4,3.4Z"/>
                <path class="cls-4" d="M1257.38,74.59c-2.7,0-5.13-.66-7.31-1.99-2.18-1.33-3.87-3.18-5.08-5.55-1.21-2.37-1.82-5.03-1.82-7.98v-1.26c0-3.05.59-5.79,1.77-8.23,1.18-2.44,2.83-4.36,4.94-5.76s4.39-2.09,6.86-2.09c3.85,0,6.9,1.31,9.16,3.94s3.38,6.22,3.38,10.77v1.96h-22.62v.67c0,3.59,1.03,6.59,3.09,8.98,2.06,2.39,4.65,3.59,7.78,3.59,1.88,0,3.53-.34,4.97-1.03s2.74-1.78,3.91-3.28l2.2,1.67c-2.58,3.73-6.32,5.6-11.22,5.6ZM1256.74,44.7c-2.64,0-4.86.97-6.67,2.9-1.81,1.93-2.91,4.53-3.3,7.79h19.01v-.38c-.1-3.05-.97-5.53-2.61-7.44s-3.79-2.87-6.45-2.87Z"/>
                <path class="cls-4" d="M1288.76,57.68c0-3.05.59-5.79,1.77-8.23,1.18-2.44,2.85-4.34,5.01-5.7,2.16-1.36,4.6-2.04,7.34-2.04,4.22,0,7.64,1.48,10.25,4.44s3.93,6.88,3.93,11.76v.73c0,3.07-.59,5.83-1.77,8.28s-2.85,4.34-5,5.67c-2.15,1.33-4.6,1.99-7.35,1.99-4.2,0-7.61-1.48-10.24-4.44-2.63-2.96-3.94-6.88-3.94-11.76v-.7ZM1292.28,58.65c0,3.79.98,6.9,2.94,9.33s4.54,3.65,7.72,3.65,5.73-1.22,7.69-3.65,2.94-5.64,2.94-9.62v-.67c0-2.42-.45-4.64-1.35-6.65s-2.16-3.57-3.78-4.67c-1.62-1.1-3.48-1.66-5.57-1.66-3.12,0-5.67,1.23-7.65,3.68-1.97,2.45-2.96,5.66-2.96,9.62v.64Z"/>
                <path class="cls-4" d="M1327.64,42.3l.12,5.42c1.19-1.95,2.68-3.44,4.45-4.47s3.74-1.54,5.89-1.54c3.4,0,5.93.96,7.59,2.87s2.5,4.79,2.52,8.61v20.8h-3.49v-20.83c-.02-2.83-.62-4.94-1.8-6.33s-3.07-2.08-5.67-2.08c-2.17,0-4.09.68-5.76,2.04s-2.91,3.19-3.71,5.49v21.71h-3.49v-31.7h3.34Z"/>
              </g>
            </g>
          </g>
          <g class="cls-3">
            <g class="cls-3">
              <g class="cls-3">
                <path class="cls-4" d="M378.39,143.21h-15.41l-2.93,8.79h-9.35l15.88-42.66h8.14l15.97,42.66h-9.35l-2.96-8.79ZM365.35,136.09h10.66l-5.36-15.97-5.3,15.97Z"/>
                <path class="cls-4" d="M412.79,148.78c-2.09,2.54-4.98,3.81-8.67,3.81-3.4,0-5.99-.98-7.78-2.93s-2.7-4.81-2.74-8.58v-20.77h8.47v20.5c0,3.3,1.5,4.96,4.51,4.96s4.84-1,5.92-2.99v-22.47h8.5v31.7h-7.97l-.23-3.22Z"/>
                <path class="cls-4" d="M437.51,112.51v7.79h5.42v6.21h-5.42v15.82c0,1.17.22,2.01.67,2.52.45.51,1.31.76,2.58.76.94,0,1.77-.07,2.49-.21v6.42c-1.66.51-3.37.76-5.13.76-5.94,0-8.96-3-9.08-8.99v-17.08h-4.63v-6.21h4.63v-7.79h8.47Z"/>
                <path class="cls-4" d="M445.45,135.86c0-3.14.6-5.95,1.82-8.41,1.21-2.46,2.95-4.37,5.23-5.71,2.27-1.35,4.92-2.02,7.92-2.02,4.28,0,7.77,1.31,10.47,3.93,2.71,2.62,4.21,6.17,4.53,10.66l.06,2.17c0,4.86-1.36,8.76-4.07,11.7-2.71,2.94-6.36,4.41-10.93,4.41s-8.22-1.46-10.94-4.39-4.09-6.91-4.09-11.95v-.38ZM453.92,136.46c0,3.01.57,5.32,1.7,6.91,1.13,1.59,2.75,2.39,4.86,2.39s3.65-.79,4.8-2.36c1.15-1.57,1.73-4.09,1.73-7.55,0-2.95-.58-5.24-1.73-6.87-1.15-1.62-2.77-2.44-4.86-2.44s-3.67.81-4.8,2.42c-1.13,1.61-1.7,4.11-1.7,7.5Z"/>
                <path class="cls-4" d="M488.63,120.3l.26,3.54c2.25-2.75,5.28-4.13,9.11-4.13,4.08,0,6.88,1.61,8.41,4.83,2.23-3.22,5.4-4.83,9.52-4.83,3.44,0,6,1,7.68,3,1.68,2,2.52,5.01,2.52,9.04v20.24h-8.5v-20.21c0-1.8-.35-3.11-1.05-3.94s-1.94-1.25-3.72-1.25c-2.54,0-4.3,1.21-5.27,3.63l.03,21.77h-8.47v-20.19c0-1.84-.36-3.16-1.08-3.98-.72-.82-1.95-1.23-3.69-1.23-2.4,0-4.14,1-5.21,2.99v22.41h-8.47v-31.7h7.94Z"/>
                <path class="cls-4" d="M531.32,135.86c0-3.14.6-5.95,1.82-8.41,1.21-2.46,2.95-4.37,5.23-5.71,2.27-1.35,4.92-2.02,7.92-2.02,4.28,0,7.77,1.31,10.47,3.93,2.71,2.62,4.21,6.17,4.53,10.66l.06,2.17c0,4.86-1.36,8.76-4.07,11.7-2.71,2.94-6.36,4.41-10.93,4.41s-8.22-1.46-10.94-4.39-4.09-6.91-4.09-11.95v-.38ZM539.79,136.46c0,3.01.57,5.32,1.7,6.91,1.13,1.59,2.75,2.39,4.86,2.39s3.65-.79,4.8-2.36c1.15-1.57,1.73-4.09,1.73-7.55,0-2.95-.58-5.24-1.73-6.87-1.15-1.62-2.77-2.44-4.86-2.44s-3.67.81-4.8,2.42c-1.13,1.61-1.7,4.11-1.7,7.5Z"/>
                <path class="cls-4" d="M576.7,112.51v7.79h5.42v6.21h-5.42v15.82c0,1.17.22,2.01.67,2.52.45.51,1.31.76,2.58.76.94,0,1.77-.07,2.49-.21v6.42c-1.66.51-3.37.76-5.13.76-5.94,0-8.96-3-9.08-8.99v-17.08h-4.63v-6.21h4.63v-7.79h8.47Z"/>
                <path class="cls-4" d="M586.78,112.1c0-1.27.42-2.31,1.27-3.13s2.01-1.23,3.47-1.23,2.6.41,3.46,1.23c.86.82,1.29,1.87,1.29,3.13s-.44,2.34-1.3,3.16c-.87.82-2.02,1.23-3.44,1.23s-2.57-.41-3.44-1.23c-.87-.82-1.3-1.88-1.3-3.16ZM595.77,152h-8.5v-31.7h8.5v31.7Z"/>
                <path class="cls-4" d="M614.61,141.66l5.89-21.36h8.85l-10.69,31.7h-8.09l-10.69-31.7h8.85l5.89,21.36Z"/>
                <path class="cls-4" d="M647.28,152.59c-4.65,0-8.43-1.43-11.35-4.28-2.92-2.85-4.38-6.65-4.38-11.4v-.82c0-3.18.62-6.03,1.85-8.54s2.97-4.44,5.23-5.8,4.83-2.04,7.72-2.04c4.34,0,7.75,1.37,10.24,4.1s3.74,6.61,3.74,11.63v3.46h-20.19c.27,2.07,1.1,3.73,2.48,4.98s3.12,1.88,5.23,1.88c3.26,0,5.81-1.18,7.65-3.54l4.16,4.66c-1.27,1.8-2.99,3.2-5.16,4.2s-4.57,1.51-7.21,1.51ZM646.31,126.54c-1.68,0-3.04.57-4.09,1.71-1.04,1.14-1.71,2.77-2.01,4.88h11.78v-.68c-.04-1.88-.55-3.34-1.52-4.37-.98-1.03-2.36-1.54-4.16-1.54Z"/>
                <path class="cls-4" d="M712.9,109.34v28.1c0,4.67-1.46,8.36-4.38,11.07-2.92,2.71-6.91,4.07-11.97,4.07s-8.94-1.32-11.87-3.96-4.42-6.26-4.48-10.87v-28.42h8.79v28.15c0,2.79.67,4.83,2.01,6.11,1.34,1.28,3.19,1.92,5.55,1.92,4.94,0,7.45-2.6,7.53-7.79v-28.39h8.82Z"/>
                <path class="cls-4" d="M736.72,143.24c0-1.04-.51-1.85-1.54-2.45s-2.67-1.13-4.94-1.6c-7.54-1.58-11.31-4.79-11.31-9.61,0-2.81,1.17-5.16,3.5-7.05,2.33-1.88,5.39-2.83,9.16-2.83,4.02,0,7.24.95,9.65,2.84,2.41,1.89,3.62,4.36,3.62,7.38h-8.47c0-1.21-.39-2.21-1.17-3-.78-.79-2-1.19-3.66-1.19-1.43,0-2.53.32-3.31.97-.78.64-1.17,1.46-1.17,2.46,0,.94.44,1.69,1.33,2.27.89.58,2.39,1.07,4.5,1.49s3.89.89,5.33,1.42c4.47,1.64,6.71,4.48,6.71,8.53,0,2.89-1.24,5.23-3.72,7.02-2.48,1.79-5.68,2.68-9.61,2.68-2.66,0-5.01-.47-7.08-1.42-2.06-.95-3.68-2.25-4.85-3.9s-1.76-3.43-1.76-5.35h8.03c.08,1.5.63,2.66,1.67,3.46,1.04.8,2.42,1.2,4.16,1.2,1.62,0,2.85-.31,3.68-.92.83-.62,1.25-1.42,1.25-2.42Z"/>
                <path class="cls-4" d="M764.99,152.59c-4.65,0-8.43-1.43-11.35-4.28-2.92-2.85-4.38-6.65-4.38-11.4v-.82c0-3.18.62-6.03,1.85-8.54s2.97-4.44,5.23-5.8,4.83-2.04,7.72-2.04c4.34,0,7.75,1.37,10.24,4.1s3.74,6.61,3.74,11.63v3.46h-20.19c.27,2.07,1.1,3.73,2.48,4.98s3.12,1.88,5.23,1.88c3.26,0,5.81-1.18,7.65-3.54l4.16,4.66c-1.27,1.8-2.99,3.2-5.16,4.2s-4.57,1.51-7.21,1.51ZM764.03,126.54c-1.68,0-3.04.57-4.09,1.71-1.04,1.14-1.71,2.77-2.01,4.88h11.78v-.68c-.04-1.88-.55-3.34-1.52-4.37-.98-1.03-2.36-1.54-4.16-1.54Z"/>
                <path class="cls-4" d="M800.65,128.24c-1.15-.16-2.17-.23-3.05-.23-3.2,0-5.3,1.08-6.3,3.25v20.74h-8.47v-31.7h8l.23,3.78c1.7-2.91,4.05-4.37,7.06-4.37.94,0,1.82.13,2.64.38l-.12,8.14Z"/>
                <path class="cls-4" d="M829.56,152h-8.79v-42.66h8.79v42.66Z"/>
                <path class="cls-4" d="M844.94,120.3l.26,3.66c2.27-2.83,5.3-4.25,9.11-4.25,3.36,0,5.86.99,7.5,2.96s2.48,4.92,2.52,8.85v20.48h-8.47v-20.27c0-1.8-.39-3.1-1.17-3.91-.78-.81-2.08-1.22-3.9-1.22-2.38,0-4.17,1.02-5.36,3.05v22.35h-8.47v-31.7h7.97Z"/>
                <path class="cls-4" d="M880.89,112.51v7.79h5.42v6.21h-5.42v15.82c0,1.17.22,2.01.67,2.52.45.51,1.31.76,2.58.76.94,0,1.77-.07,2.49-.21v6.42c-1.66.51-3.37.76-5.13.76-5.94,0-8.96-3-9.08-8.99v-17.08h-4.63v-6.21h4.63v-7.79h8.47Z"/>
                <path class="cls-4" d="M905.62,152.59c-4.65,0-8.43-1.43-11.35-4.28-2.92-2.85-4.38-6.65-4.38-11.4v-.82c0-3.18.62-6.03,1.85-8.54s2.97-4.44,5.23-5.8,4.83-2.04,7.72-2.04c4.34,0,7.75,1.37,10.24,4.1s3.74,6.61,3.74,11.63v3.46h-20.19c.27,2.07,1.1,3.73,2.48,4.98s3.12,1.88,5.23,1.88c3.26,0,5.81-1.18,7.65-3.54l4.16,4.66c-1.27,1.8-2.99,3.2-5.16,4.2s-4.57,1.51-7.21,1.51ZM904.65,126.54c-1.68,0-3.04.57-4.09,1.71-1.04,1.14-1.71,2.77-2.01,4.88h11.78v-.68c-.04-1.88-.55-3.34-1.52-4.37-.98-1.03-2.36-1.54-4.16-1.54Z"/>
                <path class="cls-4" d="M941.27,128.24c-1.15-.16-2.17-.23-3.05-.23-3.2,0-5.3,1.08-6.3,3.25v20.74h-8.47v-31.7h8l.23,3.78c1.7-2.91,4.05-4.37,7.06-4.37.94,0,1.82.13,2.64.38l-.12,8.14Z"/>
                <path class="cls-4" d="M948.24,152v-25.49h-4.72v-6.21h4.72v-2.7c0-3.55,1.02-6.31,3.06-8.28,2.04-1.96,4.9-2.94,8.57-2.94,1.17,0,2.61.2,4.31.59l-.09,6.56c-.7-.18-1.56-.26-2.58-.26-3.18,0-4.78,1.49-4.78,4.48v2.55h6.3v6.21h-6.3v25.49h-8.5Z"/>
                <path class="cls-4" d="M985.8,152c-.39-.76-.67-1.71-.85-2.84-2.05,2.29-4.72,3.43-8,3.43-3.11,0-5.68-.9-7.72-2.7-2.04-1.8-3.06-4.06-3.06-6.8,0-3.36,1.25-5.94,3.74-7.73s6.09-2.71,10.8-2.72h3.9v-1.82c0-1.46-.38-2.64-1.13-3.52-.75-.88-1.94-1.32-3.56-1.32-1.43,0-2.54.34-3.35,1.03-.81.68-1.22,1.62-1.22,2.81h-8.47c0-1.84.57-3.54,1.7-5.1,1.13-1.56,2.73-2.79,4.8-3.68,2.07-.89,4.39-1.33,6.97-1.33,3.91,0,7.01.98,9.3,2.94,2.29,1.96,3.44,4.72,3.44,8.28v13.74c.02,3.01.44,5.28,1.26,6.83v.5h-8.55ZM978.8,146.11c1.25,0,2.4-.28,3.46-.83s1.84-1.3,2.34-2.24v-5.45h-3.16c-4.24,0-6.49,1.46-6.77,4.39l-.03.5c0,1.05.37,1.92,1.11,2.61.74.68,1.76,1.03,3.05,1.03Z"/>
                <path class="cls-4" d="M1012.79,145.76c1.56,0,2.83-.43,3.81-1.29.98-.86,1.48-2,1.52-3.43h7.94c-.02,2.15-.61,4.12-1.76,5.9-1.15,1.79-2.73,3.17-4.73,4.16-2,.99-4.21,1.48-6.64,1.48-4.53,0-8.11-1.44-10.72-4.32-2.62-2.88-3.93-6.86-3.93-11.94v-.56c0-4.88,1.3-8.78,3.9-11.69,2.6-2.91,6.16-4.37,10.69-4.37,3.96,0,7.14,1.13,9.54,3.38,2.39,2.26,3.61,5.26,3.65,9.01h-7.94c-.04-1.65-.55-2.99-1.52-4.02-.98-1.03-2.27-1.55-3.87-1.55-1.97,0-3.46.72-4.47,2.16-1.01,1.44-1.51,3.77-1.51,7v.88c0,3.27.5,5.62,1.49,7.04s2.51,2.14,4.54,2.14Z"/>
                <path class="cls-4" d="M1045.48,152.59c-4.65,0-8.43-1.43-11.35-4.28-2.92-2.85-4.38-6.65-4.38-11.4v-.82c0-3.18.62-6.03,1.85-8.54s2.97-4.44,5.23-5.8,4.83-2.04,7.72-2.04c4.34,0,7.75,1.37,10.24,4.1s3.74,6.61,3.74,11.63v3.46h-20.19c.27,2.07,1.1,3.73,2.48,4.98s3.12,1.88,5.23,1.88c3.26,0,5.81-1.18,7.65-3.54l4.16,4.66c-1.27,1.8-2.99,3.2-5.16,4.2s-4.57,1.51-7.21,1.51ZM1044.51,126.54c-1.68,0-3.04.57-4.09,1.71-1.04,1.14-1.71,2.77-2.01,4.88h11.78v-.68c-.04-1.88-.55-3.34-1.52-4.37-.98-1.03-2.36-1.54-4.16-1.54Z"/>
                <path class="cls-4" d="M1080.49,143.24c0-1.04-.51-1.85-1.54-2.45s-2.67-1.13-4.94-1.6c-7.54-1.58-11.31-4.79-11.31-9.61,0-2.81,1.17-5.16,3.5-7.05,2.33-1.88,5.39-2.83,9.16-2.83,4.02,0,7.24.95,9.65,2.84,2.41,1.89,3.62,4.36,3.62,7.38h-8.47c0-1.21-.39-2.21-1.17-3-.78-.79-2-1.19-3.66-1.19-1.43,0-2.53.32-3.31.97-.78.64-1.17,1.46-1.17,2.46,0,.94.44,1.69,1.33,2.27.89.58,2.39,1.07,4.5,1.49s3.89.89,5.33,1.42c4.47,1.64,6.71,4.48,6.71,8.53,0,2.89-1.24,5.23-3.72,7.02-2.48,1.79-5.68,2.68-9.61,2.68-2.66,0-5.01-.47-7.08-1.42-2.06-.95-3.68-2.25-4.85-3.9s-1.76-3.43-1.76-5.35h8.03c.08,1.5.63,2.66,1.67,3.46,1.04.8,2.42,1.2,4.16,1.2,1.62,0,2.85-.31,3.68-.92.83-.62,1.25-1.42,1.25-2.42Z"/>
              </g>
            </g>
          </g>
        </g>
      </g>
    </g>
    <g class="cls-3">
      <g class="cls-3">
        <g class="cls-3">
          <g class="cls-3">
            <g class="cls-3">
              <g class="cls-3">
                <path class="cls-4" d="M372.45,215.57c0-1.74-.61-3.12-1.83-4.13-1.22-1.01-3.46-1.98-6.71-2.89-3.25-.91-5.63-1.91-7.12-2.99-2.13-1.53-3.19-3.53-3.19-6s.99-4.36,2.97-5.86,4.51-2.26,7.59-2.26c2.09,0,3.95.4,5.6,1.21s2.92,1.93,3.83,3.37c.91,1.44,1.36,3.04,1.36,4.81h-2.68c0-2.15-.73-3.88-2.2-5.18-1.47-1.31-3.44-1.96-5.91-1.96s-4.32.54-5.74,1.61c-1.42,1.07-2.14,2.47-2.14,4.2,0,1.6.64,2.9,1.92,3.91s3.33,1.9,6.15,2.67c2.82.77,4.96,1.57,6.41,2.4,1.45.83,2.55,1.82,3.28,2.97.73,1.15,1.1,2.51,1.1,4.08,0,2.47-.99,4.46-2.97,5.96-1.98,1.5-4.59,2.24-7.82,2.24-2.22,0-4.25-.4-6.1-1.19-1.85-.79-3.25-1.9-4.21-3.32-.96-1.42-1.44-3.06-1.44-4.9h2.65c0,2.22.83,3.96,2.48,5.25,1.65,1.28,3.86,1.92,6.6,1.92,2.45,0,4.41-.54,5.89-1.62s2.22-2.51,2.22-4.29Z"/>
                <path class="cls-4" d="M389.29,223.73c-1.99,0-3.78-.49-5.38-1.47-1.6-.98-2.85-2.34-3.74-4.09s-1.34-3.71-1.34-5.88v-.93c0-2.25.44-4.27,1.31-6.06.87-1.8,2.08-3.21,3.64-4.24,1.55-1.03,3.24-1.54,5.05-1.54,2.83,0,5.08.97,6.74,2.9,1.66,1.94,2.49,4.58,2.49,7.93v1.45h-16.66v.5c0,2.65.76,4.85,2.28,6.62,1.52,1.76,3.43,2.64,5.73,2.64,1.38,0,2.6-.25,3.66-.76,1.06-.5,2.02-1.31,2.88-2.42l1.62,1.23c-1.9,2.75-4.65,4.12-8.27,4.12ZM388.81,201.72c-1.94,0-3.58.71-4.91,2.14-1.33,1.42-2.14,3.34-2.43,5.74h14.01v-.28c-.07-2.24-.71-4.07-1.92-5.48-1.21-1.41-2.79-2.12-4.75-2.12Z"/>
                <path class="cls-4" d="M421.86,211.86c0,3.64-.81,6.53-2.42,8.67-1.61,2.14-3.77,3.21-6.47,3.21-3.19,0-5.64-1.12-7.34-3.37v11.91h-2.57v-32.33h2.4l.13,3.3c1.68-2.49,4.12-3.73,7.32-3.73,2.79,0,4.98,1.06,6.57,3.17,1.59,2.12,2.38,5.05,2.38,8.81v.37ZM419.27,211.41c0-2.98-.61-5.33-1.83-7.06-1.22-1.73-2.93-2.59-5.11-2.59-1.58,0-2.94.38-4.08,1.14-1.14.76-2.01,1.87-2.61,3.32v11.2c.62,1.34,1.5,2.36,2.65,3.06,1.15.71,2.51,1.06,4.08,1.06,2.17,0,3.87-.87,5.08-2.6s1.82-4.25,1.82-7.54Z"/>
                <path class="cls-4" d="M431.59,193.97v5.98h4.83v2.12h-4.83v15.58c0,1.3.23,2.26.7,2.9.47.63,1.25.95,2.34.95.43,0,1.13-.07,2.09-.22l.11,2.1c-.68.24-1.6.36-2.76.36-1.77,0-3.06-.51-3.86-1.54-.81-1.03-1.21-2.54-1.21-4.54v-15.58h-4.29v-2.12h4.29v-5.98h2.59Z"/>
                <path class="cls-4" d="M450.82,223.73c-1.99,0-3.78-.49-5.38-1.47-1.6-.98-2.85-2.34-3.74-4.09s-1.34-3.71-1.34-5.88v-.93c0-2.25.44-4.27,1.31-6.06.87-1.8,2.08-3.21,3.64-4.24,1.55-1.03,3.24-1.54,5.05-1.54,2.83,0,5.08.97,6.74,2.9,1.66,1.94,2.49,4.58,2.49,7.93v1.45h-16.66v.5c0,2.65.76,4.85,2.28,6.62,1.52,1.76,3.43,2.64,5.73,2.64,1.38,0,2.6-.25,3.66-.76,1.06-.5,2.02-1.31,2.88-2.42l1.62,1.23c-1.9,2.75-4.65,4.12-8.27,4.12ZM450.34,201.72c-1.94,0-3.58.71-4.91,2.14-1.33,1.42-2.14,3.34-2.43,5.74h14.01v-.28c-.07-2.24-.71-4.07-1.92-5.48-1.21-1.41-2.79-2.12-4.75-2.12Z"/>
                <path class="cls-4" d="M466.96,199.95l.09,3.8c.86-1.41,1.94-2.47,3.24-3.17s2.73-1.06,4.32-1.06c3.68,0,6.02,1.51,7.01,4.53.83-1.45,1.95-2.57,3.35-3.36,1.4-.78,2.94-1.18,4.62-1.18,5.01,0,7.56,2.73,7.66,8.2v15.58h-2.59v-15.39c-.01-2.09-.46-3.63-1.35-4.64-.88-1.01-2.33-1.51-4.33-1.51-1.86.03-3.42.63-4.71,1.8s-1.99,2.6-2.14,4.28v15.45h-2.59v-15.58c-.01-2-.49-3.49-1.41-4.48-.93-.99-2.36-1.48-4.28-1.48-1.63,0-3.02.46-4.19,1.39-1.17.93-2.03,2.31-2.59,4.13v16.01h-2.59v-23.35h2.48Z"/>
                <path class="cls-4" d="M522.58,211.86c0,3.64-.81,6.53-2.42,8.67s-3.78,3.21-6.5,3.21c-3.25,0-5.71-1.21-7.38-3.63l-.11,3.19h-2.42v-33.15h2.57v13.19c1.64-2.55,4.07-3.82,7.29-3.82,2.76,0,4.95,1.05,6.55,3.16,1.6,2.11,2.41,5.04,2.41,8.79v.39ZM519.99,211.41c0-3.08-.6-5.46-1.79-7.13-1.19-1.68-2.88-2.51-5.05-2.51-1.65,0-3.06.41-4.21,1.22-1.15.81-2.02,2-2.61,3.57v10.53c1.29,2.94,3.58,4.4,6.86,4.4,2.13,0,3.79-.84,5-2.53,1.2-1.68,1.8-4.2,1.8-7.55Z"/>
                <path class="cls-4" d="M537.32,223.73c-1.99,0-3.78-.49-5.38-1.47-1.6-.98-2.85-2.34-3.74-4.09s-1.34-3.71-1.34-5.88v-.93c0-2.25.44-4.27,1.31-6.06.87-1.8,2.08-3.21,3.64-4.24,1.55-1.03,3.24-1.54,5.05-1.54,2.83,0,5.08.97,6.74,2.9,1.66,1.94,2.49,4.58,2.49,7.93v1.45h-16.66v.5c0,2.65.76,4.85,2.28,6.62,1.52,1.76,3.43,2.64,5.73,2.64,1.38,0,2.6-.25,3.66-.76,1.06-.5,2.02-1.31,2.88-2.42l1.62,1.23c-1.9,2.75-4.65,4.12-8.27,4.12ZM536.85,201.72c-1.94,0-3.58.71-4.91,2.14-1.33,1.42-2.14,3.34-2.43,5.74h14.01v-.28c-.07-2.24-.71-4.07-1.92-5.48-1.21-1.41-2.79-2.12-4.75-2.12Z"/>
                <path class="cls-4" d="M561.9,202.15c-.55-.1-1.13-.15-1.75-.15-1.61,0-2.98.45-4.09,1.35-1.12.9-1.91,2.21-2.38,3.92v16.04h-2.57v-23.35h2.53l.04,3.71c1.37-2.76,3.56-4.14,6.58-4.14.72,0,1.29.09,1.71.28l-.06,2.35Z"/>
                <path class="cls-4" d="M596,223.3h-19.68v-1.99l10.77-12.22c1.78-2.06,3.02-3.75,3.71-5.09.69-1.34,1.04-2.64,1.04-3.91,0-1.99-.58-3.56-1.75-4.71s-2.77-1.74-4.81-1.74-3.82.68-5.13,2.03c-1.3,1.35-1.95,3.11-1.95,5.27h-2.57c0-1.77.4-3.38,1.2-4.83.8-1.45,1.94-2.59,3.41-3.42,1.47-.83,3.15-1.24,5.04-1.24,2.88,0,5.13.76,6.74,2.27s2.43,3.57,2.43,6.17c0,1.47-.46,3.07-1.37,4.81-.91,1.74-2.52,3.91-4.82,6.52l-8.76,9.91h16.51v2.18Z"/>
                <path class="cls-4" d="M620.5,223.3h-19.68v-1.99l10.77-12.22c1.78-2.06,3.02-3.75,3.71-5.09.69-1.34,1.04-2.64,1.04-3.91,0-1.99-.58-3.56-1.75-4.71s-2.77-1.74-4.81-1.74-3.82.68-5.13,2.03c-1.3,1.35-1.95,3.11-1.95,5.27h-2.57c0-1.77.4-3.38,1.2-4.83.8-1.45,1.94-2.59,3.41-3.42,1.47-.83,3.15-1.24,5.04-1.24,2.88,0,5.13.76,6.74,2.27s2.43,3.57,2.43,6.17c0,1.47-.46,3.07-1.37,4.81-.91,1.74-2.52,3.91-4.82,6.52l-8.76,9.91h16.51v2.18Z"/>
                <path class="cls-4" d="M633.75,210.52h-10.34v-2.18h10.34v2.18Z"/>
                <path class="cls-4" d="M657.64,223.3h-19.68v-1.99l10.77-12.22c1.78-2.06,3.02-3.75,3.71-5.09.69-1.34,1.04-2.64,1.04-3.91,0-1.99-.58-3.56-1.75-4.71s-2.77-1.74-4.81-1.74-3.82.68-5.13,2.03c-1.3,1.35-1.95,3.11-1.95,5.27h-2.57c0-1.77.4-3.38,1.2-4.83.8-1.45,1.94-2.59,3.41-3.42,1.47-.83,3.15-1.24,5.04-1.24,2.88,0,5.13.76,6.74,2.27s2.43,3.57,2.43,6.17c0,1.47-.46,3.07-1.37,4.81-.91,1.74-2.52,3.91-4.82,6.52l-8.76,9.91h16.51v2.18Z"/>
                <path class="cls-4" d="M664.2,207.2l1.53-15.32h15.71v2.4h-13.49l-1.1,10.62c1.68-1.15,3.65-1.73,5.91-1.73,2.83,0,5.09.92,6.78,2.76,1.68,1.84,2.52,4.29,2.52,7.36,0,3.31-.82,5.88-2.46,7.7-1.64,1.83-3.95,2.74-6.93,2.74-2.73,0-4.95-.76-6.65-2.29-1.7-1.52-2.67-3.66-2.91-6.41h2.48c.24,2.14.97,3.77,2.18,4.87s2.84,1.65,4.9,1.65c2.24,0,3.94-.71,5.08-2.14,1.14-1.42,1.72-3.45,1.72-6.09,0-2.3-.64-4.18-1.92-5.63s-3.03-2.18-5.24-2.18c-1.22,0-2.29.15-3.19.46-.91.31-1.86.91-2.87,1.8l-2.05-.58Z"/>
                <path class="cls-4" d="M686.82,229.17l-1.53-1.12c1.31-1.76,1.99-3.58,2.03-5.46v-3.35h2.52v2.7c0,2.99-1.01,5.4-3.02,7.23Z"/>
                <path class="cls-4" d="M725.84,223.3h-19.68v-1.99l10.77-12.22c1.78-2.06,3.02-3.75,3.71-5.09.69-1.34,1.04-2.64,1.04-3.91,0-1.99-.58-3.56-1.75-4.71s-2.77-1.74-4.81-1.74-3.82.68-5.13,2.03c-1.3,1.35-1.95,3.11-1.95,5.27h-2.57c0-1.77.4-3.38,1.2-4.83.8-1.45,1.94-2.59,3.41-3.42,1.47-.83,3.15-1.24,5.04-1.24,2.88,0,5.13.76,6.74,2.27s2.43,3.57,2.43,6.17c0,1.47-.46,3.07-1.37,4.81-.91,1.74-2.52,3.91-4.82,6.52l-8.76,9.91h16.51v2.18Z"/>
                <path class="cls-4" d="M749.6,210.2c0,4.43-.81,7.79-2.44,10.09s-4.02,3.44-7.19,3.44-5.49-1.13-7.14-3.38c-1.65-2.25-2.5-5.53-2.55-9.83v-5.63c0-4.42.82-7.76,2.46-10.04s4.04-3.41,7.19-3.41,5.48,1.1,7.12,3.29c1.64,2.19,2.49,5.43,2.55,9.7v5.76ZM747.01,204.57c0-3.6-.59-6.32-1.76-8.16-1.17-1.84-2.95-2.76-5.32-2.76s-4.09.9-5.27,2.7c-1.18,1.8-1.78,4.45-1.81,7.96v6.17c0,3.58.61,6.32,1.82,8.22,1.22,1.9,2.98,2.85,5.3,2.85s4.05-.93,5.23-2.78,1.79-4.58,1.8-8.16v-6.04Z"/>
                <path class="cls-4" d="M774.83,223.3h-19.68v-1.99l10.77-12.22c1.78-2.06,3.02-3.75,3.71-5.09.69-1.34,1.04-2.64,1.04-3.91,0-1.99-.58-3.56-1.75-4.71s-2.77-1.74-4.81-1.74-3.82.68-5.13,2.03c-1.3,1.35-1.95,3.11-1.95,5.27h-2.57c0-1.77.4-3.38,1.2-4.83.8-1.45,1.94-2.59,3.41-3.42,1.47-.83,3.15-1.24,5.04-1.24,2.88,0,5.13.76,6.74,2.27s2.43,3.57,2.43,6.17c0,1.47-.46,3.07-1.37,4.81-.91,1.74-2.52,3.91-4.82,6.52l-8.76,9.91h16.51v2.18Z"/>
                <path class="cls-4" d="M781.39,207.2l1.53-15.32h15.71v2.4h-13.49l-1.1,10.62c1.68-1.15,3.65-1.73,5.91-1.73,2.83,0,5.09.92,6.78,2.76,1.68,1.84,2.52,4.29,2.52,7.36,0,3.31-.82,5.88-2.46,7.7-1.64,1.83-3.95,2.74-6.93,2.74-2.73,0-4.95-.76-6.65-2.29-1.7-1.52-2.67-3.66-2.91-6.41h2.48c.24,2.14.97,3.77,2.18,4.87s2.84,1.65,4.9,1.65c2.24,0,3.94-.71,5.08-2.14,1.14-1.42,1.72-3.45,1.72-6.09,0-2.3-.64-4.18-1.92-5.63s-3.03-2.18-5.24-2.18c-1.22,0-2.29.15-3.19.46-.91.31-1.86.91-2.87,1.8l-2.05-.58Z"/>
                <path class="cls-4" d="M817.95,229.13h-2.18v-37.25h2.18v37.25Z"/>
                <path class="cls-4" d="M836.4,223.3v-31.42h9.28c3.37,0,5.92.7,7.66,2.08,1.74,1.39,2.61,3.44,2.61,6.14,0,1.63-.44,3.04-1.33,4.24s-2.1,2.06-3.64,2.58c1.83.4,3.3,1.3,4.41,2.7,1.11,1.39,1.67,3,1.67,4.83,0,2.78-.9,4.94-2.69,6.5-1.79,1.56-4.28,2.34-7.48,2.34h-10.51ZM839.06,205.97h7.25c2.22-.04,3.93-.57,5.15-1.57s1.82-2.46,1.82-4.38c0-2.02-.63-3.51-1.89-4.46-1.26-.96-3.16-1.44-5.71-1.44h-6.63v11.85ZM839.06,208.21v12.84h7.96c2.27,0,4.08-.58,5.41-1.73s2-2.76,2-4.82c0-1.94-.64-3.47-1.91-4.6s-3.03-1.69-5.28-1.69h-8.18Z"/>
                <path class="cls-4" d="M873.68,202.15c-.55-.1-1.13-.15-1.75-.15-1.61,0-2.98.45-4.09,1.35-1.12.9-1.91,2.21-2.38,3.92v16.04h-2.57v-23.35h2.53l.04,3.71c1.37-2.76,3.56-4.14,6.58-4.14.72,0,1.29.09,1.71.28l-.06,2.35Z"/>
                <path class="cls-4" d="M877.6,193.2c0-.49.16-.9.47-1.23s.75-.5,1.29-.5.98.17,1.31.5.49.75.49,1.23-.16.89-.49,1.22c-.32.33-.76.49-1.31.49s-.98-.16-1.29-.49c-.32-.33-.47-.74-.47-1.22ZM880.65,223.3h-2.59v-23.35h2.59v23.35Z"/>
                <path class="cls-4" d="M901.65,217.36c0-1.28-.51-2.31-1.54-3.09-1.03-.78-2.58-1.38-4.65-1.82-2.07-.44-3.68-.94-4.82-1.51-1.14-.57-1.99-1.26-2.55-2.08-.55-.82-.83-1.81-.83-2.98,0-1.84.77-3.36,2.31-4.56,1.54-1.2,3.51-1.8,5.91-1.8,2.6,0,4.69.64,6.27,1.93,1.58,1.29,2.36,2.97,2.36,5.04h-2.59c0-1.37-.57-2.5-1.72-3.41-1.14-.91-2.59-1.36-4.33-1.36s-3.06.38-4.09,1.13c-1.03.76-1.54,1.74-1.54,2.95s.43,2.07,1.28,2.71c.86.64,2.42,1.23,4.68,1.76s3.96,1.1,5.09,1.71c1.13.6,1.97,1.33,2.51,2.18.55.85.82,1.88.82,3.09,0,1.97-.8,3.55-2.38,4.73-1.59,1.18-3.67,1.77-6.23,1.77-2.72,0-4.92-.66-6.61-1.97-1.69-1.32-2.54-2.98-2.54-5h2.59c.1,1.51.74,2.69,1.91,3.53,1.17.84,2.72,1.26,4.65,1.26,1.8,0,3.25-.4,4.36-1.19,1.11-.79,1.66-1.79,1.66-3Z"/>
                <path class="cls-4" d="M928.84,211.86c0,3.64-.81,6.53-2.42,8.67s-3.78,3.21-6.5,3.21c-3.25,0-5.71-1.21-7.38-3.63l-.11,3.19h-2.42v-33.15h2.57v13.19c1.64-2.55,4.07-3.82,7.29-3.82,2.76,0,4.95,1.05,6.55,3.16,1.6,2.11,2.41,5.04,2.41,8.79v.39ZM926.25,211.41c0-3.08-.6-5.46-1.79-7.13-1.19-1.68-2.88-2.51-5.05-2.51-1.65,0-3.06.41-4.21,1.22-1.15.81-2.02,2-2.61,3.57v10.53c1.29,2.94,3.58,4.4,6.86,4.4,2.13,0,3.79-.84,5-2.53,1.2-1.68,1.8-4.2,1.8-7.55Z"/>
                <path class="cls-4" d="M949.28,223.3c-.26-.73-.42-1.82-.5-3.26-.91,1.18-2.06,2.09-3.46,2.73-1.4.64-2.89.96-4.46.96-2.24,0-4.06-.63-5.45-1.88-1.39-1.25-2.08-2.83-2.08-4.75,0-2.27.95-4.07,2.84-5.4,1.89-1.32,4.53-1.99,7.91-1.99h4.68v-2.65c0-1.67-.51-2.98-1.54-3.94-1.03-.96-2.53-1.44-4.5-1.44-1.8,0-3.29.46-4.47,1.38-1.18.92-1.77,2.03-1.77,3.32l-2.59-.02c0-1.86.86-3.46,2.59-4.82,1.73-1.36,3.85-2.04,6.37-2.04s4.66.65,6.16,1.95,2.28,3.12,2.32,5.45v11.05c0,2.26.24,3.95.71,5.07v.26h-2.76ZM941.16,221.44c1.73,0,3.27-.42,4.63-1.25,1.36-.83,2.35-1.95,2.97-3.35v-5.14h-4.62c-2.58.03-4.59.5-6.04,1.41s-2.18,2.17-2.18,3.77c0,1.31.49,2.4,1.46,3.26.97.86,2.23,1.29,3.79,1.29Z"/>
                <path class="cls-4" d="M960.67,199.95l.09,3.99c.88-1.44,1.97-2.54,3.28-3.29,1.31-.75,2.76-1.13,4.34-1.13,2.5,0,4.37.71,5.59,2.12,1.22,1.41,1.84,3.52,1.86,6.34v15.32h-2.57v-15.34c-.01-2.09-.46-3.64-1.33-4.66-.87-1.02-2.26-1.53-4.18-1.53-1.6,0-3.01.5-4.24,1.5-1.23,1-2.14,2.35-2.73,4.05v15.99h-2.57v-23.35h2.46Z"/>
                <path class="cls-4" d="M991.54,223.73c-1.99,0-3.78-.49-5.38-1.47-1.6-.98-2.85-2.34-3.74-4.09s-1.34-3.71-1.34-5.88v-.93c0-2.25.44-4.27,1.31-6.06.87-1.8,2.08-3.21,3.64-4.24,1.55-1.03,3.24-1.54,5.05-1.54,2.83,0,5.08.97,6.74,2.9,1.66,1.94,2.49,4.58,2.49,7.93v1.45h-16.66v.5c0,2.65.76,4.85,2.28,6.62,1.52,1.76,3.43,2.64,5.73,2.64,1.38,0,2.6-.25,3.66-.76,1.06-.5,2.02-1.31,2.88-2.42l1.62,1.23c-1.9,2.75-4.65,4.12-8.27,4.12ZM991.06,201.72c-1.94,0-3.58.71-4.91,2.14-1.33,1.42-2.14,3.34-2.43,5.74h14.01v-.28c-.07-2.24-.71-4.07-1.92-5.48-1.21-1.41-2.79-2.12-4.75-2.12Z"/>
              </g>
            </g>
          </g>
          <g class="cls-3">
            <g class="cls-3">
              <g class="cls-3">
                <path class="cls-4" d="M1023.55,191.88l6.41,27.67,16.06-27.67h3.56l-5.46,31.42h-2.63l2.4-13.79,2.57-13.6-15.99,27.39h-2.03l-6.52-27.6-2.22,13.94-2.37,13.66h-2.63l5.46-31.42h3.41Z"/>
                <path class="cls-4" d="M1060.67,223.73c-1.87-.03-3.49-.55-4.86-1.56-1.37-1.01-2.37-2.4-3.01-4.14-.64-1.75-.87-3.64-.68-5.67l.06-.73c.2-2.16.84-4.21,1.92-6.16,1.08-1.95,2.45-3.44,4.1-4.47,1.65-1.03,3.42-1.52,5.31-1.48,1.74.03,3.21.5,4.41,1.42,1.2.92,2.08,2.2,2.62,3.84.55,1.64.72,3.45.52,5.44l-.17,1.58h-16.17l-.06.52c-.22,1.57-.1,3.07.35,4.5.45,1.43,1.18,2.57,2.19,3.41s2.23,1.28,3.66,1.31c1.38.04,2.63-.22,3.73-.8,1.11-.58,2.13-1.34,3.06-2.31l1.51,1.23c-1.05,1.35-2.3,2.38-3.74,3.08-1.45.7-3.03,1.03-4.76,1ZM1063.39,201.72c-1.87-.07-3.55.59-5.03,1.99-1.48,1.4-2.6,3.36-3.35,5.89l13.55.02.06-.32c.26-2.04-.1-3.8-1.08-5.28-.98-1.47-2.37-2.24-4.17-2.3Z"/>
                <path class="cls-4" d="M1088.29,223.3c-.07-.55-.09-1.09-.06-1.64l.19-1.62c-1.08,1.17-2.31,2.08-3.7,2.74-1.39.66-2.89.98-4.5.95-1.97-.03-3.57-.65-4.8-1.87-1.23-1.22-1.78-2.74-1.65-4.59.12-1.54.64-2.87,1.59-4,.94-1.13,2.28-2.01,4.02-2.63s3.69-.94,5.85-.94l4.77.02.39-2.68c.17-1.6-.17-2.88-1.04-3.84s-2.14-1.47-3.82-1.53c-1.7-.03-3.18.39-4.44,1.26-1.26.87-2.05,2.02-2.36,3.44h-2.52c.29-2.04,1.34-3.71,3.15-5,1.81-1.29,3.96-1.92,6.43-1.89,2.4.06,4.25.78,5.56,2.18s1.83,3.21,1.59,5.44l-1.94,11.74-.17,1.88c-.04.78.01,1.55.17,2.31l-.04.26h-2.65ZM1080.65,221.49c1.58.06,3.1-.32,4.54-1.14s2.64-1.97,3.59-3.47l.89-5.17-4.12-.02c-2.62,0-4.76.46-6.41,1.4-1.65.93-2.57,2.26-2.74,3.99-.13,1.27.21,2.31,1,3.14s1.88,1.25,3.25,1.28Z"/>
                <path class="cls-4" d="M1103.46,199.95l-.78,3.99c1.04-1.44,2.23-2.54,3.59-3.31,1.36-.77,2.82-1.14,4.37-1.11,2.24.06,3.88.84,4.9,2.35,1.02,1.51,1.38,3.59,1.08,6.24l-2.55,15.19h-2.55l2.55-15.22c.09-.82.1-1.61.04-2.37-.24-2.56-1.64-3.87-4.19-3.95-1.51-.03-2.92.42-4.23,1.35-1.31.93-2.46,2.33-3.45,4.19l-2.76,16h-2.55l4.06-23.35h2.46Z"/>
                <path class="cls-4" d="M1127.53,199.95l-4.45,26.14c-.29,2.17-1.04,3.85-2.27,5.03s-2.79,1.74-4.7,1.68c-.62-.01-1.4-.16-2.35-.45l.3-2.12c.79.22,1.42.32,1.9.32,2.52.06,4.04-1.46,4.58-4.56l4.45-26.05h2.55ZM1125.72,193.19c.03-.47.21-.88.55-1.23.34-.35.76-.53,1.26-.54.5-.01.91.15,1.23.5.32.34.46.77.43,1.27-.04.49-.24.9-.59,1.23s-.77.5-1.26.52c-.5.01-.91-.15-1.22-.49-.31-.34-.44-.76-.4-1.26Z"/>
                <path class="cls-4" d="M1133.57,223.3h-2.59l4.08-23.35h2.57l-4.06,23.35ZM1135.77,193.19c.07-.93.69-1.52,1.86-1.77.56.1.96.28,1.2.53.24.25.39.67.46,1.24-.14.55-.35.95-.63,1.2-.27.25-.68.44-1.23.55-1.17-.17-1.72-.76-1.66-1.75Z"/>
                <path class="cls-4" d="M1147.04,199.95l-.78,3.99c1.04-1.44,2.23-2.54,3.59-3.31,1.36-.77,2.82-1.14,4.37-1.11,2.24.06,3.88.84,4.9,2.35,1.02,1.51,1.38,3.59,1.08,6.24l-2.55,15.19h-2.55l2.55-15.22c.09-.82.1-1.61.04-2.37-.24-2.56-1.64-3.87-4.19-3.95-1.51-.03-2.92.42-4.23,1.35-1.31.93-2.46,2.33-3.45,4.19l-2.76,16h-2.55l4.06-23.35h2.46Z"/>
              </g>
            </g>
          </g>
          <g class="cls-3">
            <g class="cls-3">
              <g class="cls-3">
                <path class="cls-4" d="M1166.23,229.17l-1.53-1.12c1.31-1.76,1.99-3.58,2.03-5.46v-3.35h2.52v2.7c0,2.99-1.01,5.4-3.02,7.23Z"/>
                <path class="cls-4" d="M1203.54,214.47h-14.27l-3.24,8.83h-2.78l11.89-31.42h2.53l11.89,31.42h-2.76l-3.26-8.83ZM1190.1,212.23h12.6l-6.3-17.12-6.3,17.12Z"/>
                <path class="cls-4" d="M1228.36,220.34c-1.55,2.26-4.04,3.39-7.45,3.39-2.49,0-4.38-.72-5.68-2.17s-1.96-3.59-1.99-6.42v-15.19h2.57v14.87c0,4.45,1.8,6.67,5.4,6.67s6.11-1.55,7.1-4.64v-16.9h2.59v23.35h-2.5l-.04-2.96Z"/>
                <path class="cls-4" d="M1251.61,217.36c0-1.28-.51-2.31-1.54-3.09-1.03-.78-2.58-1.38-4.65-1.82-2.07-.44-3.68-.94-4.82-1.51-1.14-.57-1.99-1.26-2.55-2.08-.55-.82-.83-1.81-.83-2.98,0-1.84.77-3.36,2.31-4.56,1.54-1.2,3.51-1.8,5.91-1.8,2.6,0,4.69.64,6.27,1.93,1.58,1.29,2.36,2.97,2.36,5.04h-2.59c0-1.37-.57-2.5-1.72-3.41-1.14-.91-2.59-1.36-4.33-1.36s-3.06.38-4.09,1.13c-1.03.76-1.54,1.74-1.54,2.95s.43,2.07,1.28,2.71c.86.64,2.42,1.23,4.68,1.76s3.96,1.1,5.09,1.71c1.13.6,1.97,1.33,2.51,2.18.55.85.82,1.88.82,3.09,0,1.97-.8,3.55-2.38,4.73-1.59,1.18-3.67,1.77-6.23,1.77-2.72,0-4.92-.66-6.61-1.97-1.69-1.32-2.54-2.98-2.54-5h2.59c.1,1.51.74,2.69,1.91,3.53,1.17.84,2.72,1.26,4.65,1.26,1.8,0,3.25-.4,4.36-1.19,1.11-.79,1.66-1.79,1.66-3Z"/>
                <path class="cls-4" d="M1264.02,193.97v5.98h4.83v2.12h-4.83v15.58c0,1.3.23,2.26.7,2.9.47.63,1.25.95,2.34.95.43,0,1.13-.07,2.09-.22l.11,2.1c-.68.24-1.6.36-2.76.36-1.77,0-3.06-.51-3.86-1.54-.81-1.03-1.21-2.54-1.21-4.54v-15.58h-4.29v-2.12h4.29v-5.98h2.59Z"/>
                <path class="cls-4" d="M1284.99,202.15c-.55-.1-1.13-.15-1.75-.15-1.61,0-2.98.45-4.09,1.35-1.12.9-1.91,2.21-2.38,3.92v16.04h-2.57v-23.35h2.53l.04,3.71c1.37-2.76,3.56-4.14,6.58-4.14.72,0,1.29.09,1.71.28l-.06,2.35Z"/>
                <path class="cls-4" d="M1302.95,223.3c-.26-.73-.42-1.82-.5-3.26-.91,1.18-2.06,2.09-3.46,2.73-1.4.64-2.89.96-4.46.96-2.24,0-4.06-.63-5.45-1.88-1.39-1.25-2.08-2.83-2.08-4.75,0-2.27.95-4.07,2.84-5.4,1.89-1.32,4.53-1.99,7.91-1.99h4.68v-2.65c0-1.67-.51-2.98-1.54-3.94-1.03-.96-2.53-1.44-4.5-1.44-1.8,0-3.29.46-4.47,1.38-1.18.92-1.77,2.03-1.77,3.32l-2.59-.02c0-1.86.86-3.46,2.59-4.82,1.73-1.36,3.85-2.04,6.37-2.04s4.66.65,6.16,1.95,2.28,3.12,2.32,5.45v11.05c0,2.26.24,3.95.71,5.07v.26h-2.76ZM1294.83,221.44c1.73,0,3.27-.42,4.63-1.25,1.36-.83,2.35-1.95,2.97-3.35v-5.14h-4.62c-2.58.03-4.59.5-6.04,1.41s-2.18,2.17-2.18,3.77c0,1.31.49,2.4,1.46,3.26.97.86,2.23,1.29,3.79,1.29Z"/>
                <path class="cls-4" d="M1314.78,223.3h-2.59v-33.15h2.59v33.15Z"/>
                <path class="cls-4" d="M1321.64,193.2c0-.49.16-.9.47-1.23s.75-.5,1.29-.5.98.17,1.31.5.49.75.49,1.23-.16.89-.49,1.22c-.32.33-.76.49-1.31.49s-.98-.16-1.29-.49c-.32-.33-.47-.74-.47-1.22ZM1324.68,223.3h-2.59v-23.35h2.59v23.35Z"/>
                <path class="cls-4" d="M1346.44,223.3c-.26-.73-.42-1.82-.5-3.26-.91,1.18-2.06,2.09-3.46,2.73-1.4.64-2.89.96-4.46.96-2.24,0-4.06-.63-5.45-1.88-1.39-1.25-2.08-2.83-2.08-4.75,0-2.27.95-4.07,2.84-5.4,1.89-1.32,4.53-1.99,7.91-1.99h4.68v-2.65c0-1.67-.51-2.98-1.54-3.94-1.03-.96-2.53-1.44-4.5-1.44-1.8,0-3.29.46-4.47,1.38-1.18.92-1.77,2.03-1.77,3.32l-2.59-.02c0-1.86.86-3.46,2.59-4.82,1.73-1.36,3.85-2.04,6.37-2.04s4.66.65,6.16,1.95,2.28,3.12,2.32,5.45v11.05c0,2.26.24,3.95.71,5.07v.26h-2.76ZM1338.32,221.44c1.73,0,3.27-.42,4.63-1.25,1.36-.83,2.35-1.95,2.97-3.35v-5.14h-4.62c-2.58.03-4.59.5-6.04,1.41s-2.18,2.17-2.18,3.77c0,1.31.49,2.4,1.46,3.26.97.86,2.23,1.29,3.79,1.29Z"/>
              </g>
            </g>
          </g>
        </g>
      </g>
    </g>
  </g>
</svg>